<?xml version="1.0" standalone="no"?><!DOCTYPE svg PUBLIC "-//W3C//DTD SVG 1.1//EN" "http://www.w3.org/Graphics/SVG/1.1/DTD/svg11.dtd"><svg t="1514364307588" class="icon" style="" viewBox="0 0 1024 1024" version="1.1" xmlns="http://www.w3.org/2000/svg" p-id="1009" xmlns:xlink="http://www.w3.org/1999/xlink" width="200" height="200"><defs><style type="text/css"></style></defs><path d="M350.021818 324.887273c-13.963636-10.24-38.167273-4.654545-48.407273 10.24-22.341818 33.512727 16.756364 72.610909 50.269091 50.269091 20.48-13.963636 19.549091-46.545455-1.861818-60.509091zM596.712727 509.207273c-23.272727-15.825455-52.130909 8.378182-41.890909 34.443636 9.309091 22.341818 43.752727 20.48 52.130909-2.792727 3.723636-11.170909-0.930909-26.065455-10.24-31.650909zM491.52 389.12c40.029091 15.825455 66.094545-40.029091 30.72-64.232727-9.309091-6.516364-25.134545-6.516364-36.305455-0.930909-26.065455 13.963636-22.341818 53.992727 5.585455 65.163636z" p-id="1010"></path><path d="M512 20.48c-267.170909 0-484.072727 216.901818-484.072727 484.072727s216.901818 484.072727 484.072727 484.072728 484.072727-216.901818 484.072727-484.072728-215.970909-484.072727-484.072727-484.072727z m-94.952727 626.501818c-19.549091 0-48.407273-3.723636-71.68-10.24l-21.410909-5.585454-40.96 22.341818-40.96 22.341818 11.170909-34.443636c13.032727-40.029091 13.032727-40.029091 4.654545-45.614546-161.978182-107.054545-94.021818-339.781818 108.916364-376.087273 130.327273-23.272727 263.447273 48.407273 294.167273 160.116364l3.723636 13.963636h-18.618182c-143.36 0-253.207273 118.225455-221.556364 237.381819l3.723637 15.825454h-11.170909z m370.501818 76.334546c-13.963636 10.24-13.963636 8.378182-3.723636 40.96 4.654545 14.894545 8.378182 27.927273 7.447272 28.858181 0 0.930909-15.825455-6.516364-33.512727-16.756363l-32.581818-17.687273-15.825455 4.654546c-132.189091 37.236364-269.963636-45.614545-275.549091-164.77091-3.723636-89.367273 66.094545-166.632727 166.632728-185.250909 206.661818-38.167273 346.298182 193.629091 187.112727 309.992728z" p-id="1011"></path><path d="M695.389091 518.516364c-13.032727 24.203636 13.032727 50.269091 38.167273 37.236363 15.825455-8.378182 18.618182-31.650909 4.654545-44.683636-13.032727-12.101818-34.443636-8.378182-42.821818 7.447273z" p-id="1012"></path></svg>